# xmcd
#
# Track frame offsets: 
#        150
#        11483
#        23755
#        33621
#        44141
#        54534
#        65297
#        74015
#        86414
#        96231
#        107192
#        119961
#        129731
#        146603
#        161363
#        173306
#        184228
#        192681
#        202786
#        211069
#        219109
#        232760
#        244234
#        255928
#        264999
#        276289
#        287714
#        299786
#
# Disc length: 4151 seconds
#
# Revision: 0
# Processed by: cddbd v1.5.2PL0 Copyright (c) Steve Scherf et al.
# Submitted via: ExactAudioCopyFreeDBPlugin 1.0
#
DISCID=a810351c
DTITLE=Buck Owens - Tall Dark Stranger - CD 02
DYEAR=2012
DGENRE=Country
TTITLE0=We Were Made For Each Other
TTITLE1=Everybody Needs Somebody
TTITLE2=Togetherness
TTITLE3=The Kansas City Song
TTITLE4=I'd Love To Be Your Man
TTITLE5=Together Again
TTITLE6=Fallin' For You
TTITLE7=Cryin' Time
TTITLE8=Foolin' Around
TTITLE9=Down In New Orleans
TTITLE10=The Wind Blows Every Day In Oklahoma
TTITLE11=Full Time Daddy
TTITLE12=The Great White Horse
TTITLE13=Black Texas Dirt
TTITLE14=Bring Back My Peace Of Mind
TTITLE15=Guitar Pickin' Man
TTITLE16=Dublin Waltz
TTITLE17=I'd Love To Be Your Man
TTITLE18=Cajun Steel Guitar
TTITLE19=Fishin' Reel
TTITLE20=Potter's Field
TTITLE21=When I'm With You
TTITLE22=Pick-Nickin'
TTITLE23=Boot Hill
TTITLE24=Up On Cripple Creek
TTITLE25=(It's A Long Way To) London Town
TTITLE26=Scandinavian Polka
TTITLE27=Amsterdam
EXTD=
EXTT0=
EXTT1=
EXTT2=
EXTT3=
EXTT4=
EXTT5=
EXTT6=
EXTT7=
EXTT8=
EXTT9=
EXTT10=
EXTT11=
EXTT12=
EXTT13=
EXTT14=
EXTT15=
EXTT16=
EXTT17=
EXTT18=
EXTT19=
EXTT20=
EXTT21=
EXTT22=
EXTT23=
EXTT24=
EXTT25=
EXTT26=
EXTT27=
PLAYORDER=
